<?xml version="1.0" encoding="UTF-8"?><svg id="uuid-260ed4f8-6b37-4445-9cc1-ed200d2e3565" xmlns="http://www.w3.org/2000/svg" viewBox="0 0 66.07 84.36"><defs><style>.uuid-abe988e8-3603-43d9-92e2-3362340e81c9{fill:#fff;}</style></defs><g id="uuid-cb5f73f3-ed0e-4685-9ba1-a2c97eafa5d9"><path class="uuid-abe988e8-3603-43d9-92e2-3362340e81c9" d="M36.36,68.19c.74-.74,1.59-1.59,2.33-2.43,11.52-11.52,27.38-27.38,27.38-40.7,0-7.83-3.7-14.38-10.78-19.03-5.92-3.81-13.96-6.03-22.41-6.03S16.49,2.11,10.57,6.03C3.7,10.57,0,17.13,0,25.05c0,13.53,12.05,25.79,21.78,35.62.85.85,1.69,1.69,2.54,2.54.95.95,2.43,1.06,3.38,0,.95-.95,1.06-2.43.11-3.49-.85-.74-1.69-1.69-2.54-2.54C16.17,47.99,4.86,36.57,4.86,25.05c0-13.85,14.48-20.09,28.01-20.09,7.51,0,14.7,1.9,19.77,5.29,3.91,2.54,8.46,7.08,8.46,14.8,0,11.21-15.54,26.85-25.79,37.21-1.48,1.59-2.96,2.96-4.23,4.33-.1.11-.32.21-.42.42-5.18,5.39-8.88,9.94-7.4,13.64,1.37,3.28,5.92,3.7,9.72,3.7,4.44,0,9.2-.42,10.57-3.81,1.48-3.8-2.54-7.71-7.19-12.36M32.98,79.39c-3.7,0-4.86-.53-5.18-.63.1-.85,1.16-2.64,5.18-6.98,2.11,2.12,5.49,5.39,5.92,6.87-.43.21-1.9.74-5.92.74"/><path class="uuid-abe988e8-3603-43d9-92e2-3362340e81c9" d="M32.77,57.72c8.14-8.24,23.26-23.78,23.26-32.56,0-4.33-2.01-7.82-6.13-10.57-4.33-2.85-10.57-4.44-17.02-4.44-10.99,0-22.94,4.65-22.94,15.01,0,9.41,10.47,19.98,18.82,28.44.85.95,1.8,1.8,2.54,2.64l1.48,1.48Z"/></g></svg>