<?xml version="1.0" encoding="UTF-8"?><svg id="uuid-9cae7ef9-99bb-41f9-9e60-d27859594185" xmlns="http://www.w3.org/2000/svg" viewBox="0 0 522.96 67.88"><defs><style>.uuid-956137d8-95cf-4ce9-a28b-33b12a8dd490{fill:#233df7;}.uuid-b5b35296-20f6-41a7-ae0c-32e28decd3be{fill:#0c0c0c;}</style></defs><g id="uuid-a9261297-9d8d-4e3a-9e6c-aec096d0e7bc"><path class="uuid-b5b35296-20f6-41a7-ae0c-32e28decd3be" d="M238.57,56.9V22.69h11.12c10.22,0,17.13,6.91,17.13,17.13s-6.81,17.08-16.94,17.08h-11.31ZM243.21,26.95v25.65h6.34c7.62,0,12.44-4.92,12.44-12.78s-4.83-12.87-12.63-12.87h-6.15Z"/><path class="uuid-b5b35296-20f6-41a7-ae0c-32e28decd3be" d="M269.99,45.35c0-7.24,4.59-12.26,11.31-12.26s10.88,4.54,10.88,11.4v1.66l-17.89.05c.33,4.87,2.89,7.57,7.29,7.57,3.45,0,5.73-1.42,6.48-4.07h4.16c-1.14,4.97-5.02,7.76-10.74,7.76-6.81,0-11.5-4.92-11.5-12.11ZM274.39,43.22h13.34c0-3.83-2.51-6.39-6.44-6.39s-6.34,2.32-6.91,6.39Z"/><path class="uuid-b5b35296-20f6-41a7-ae0c-32e28decd3be" d="M299.04,50.18c0,2.37,1.8,3.79,4.73,3.79,3.12,0,4.92-1.28,4.92-3.41,0-1.56-.76-2.51-3.17-3.12l-4.07-.95c-4.12-.99-6.06-3.03-6.06-6.44,0-4.26,3.6-6.96,8.71-6.96s8.38,2.84,8.47,7.24h-4.26c-.09-2.32-1.66-3.79-4.35-3.79s-4.35,1.23-4.35,3.36c0,1.56,1.14,2.6,3.41,3.17l4.07.99c3.93.95,5.87,2.74,5.87,6.2,0,4.4-3.79,7.19-9.27,7.19s-8.9-2.89-8.9-7.29h4.26Z"/><path class="uuid-b5b35296-20f6-41a7-ae0c-32e28decd3be" d="M316.64,25.34c0-1.66,1.33-2.93,2.93-2.93s2.93,1.28,2.93,2.93-1.32,2.93-2.93,2.93-2.93-1.33-2.93-2.93ZM317.39,33.76h4.45v23.14h-4.45v-23.14Z"/><path class="uuid-b5b35296-20f6-41a7-ae0c-32e28decd3be" d="M337.27,33.1c3.74,0,6.62,1.7,8.09,4.59l.33-3.93h3.97v22.19c0,7.29-4.5,11.92-11.59,11.92-6.29,0-10.6-3.55-11.45-9.42h4.45c.57,3.41,3.12,5.39,7,5.39,4.35,0,7.19-2.84,7.19-7.24v-4.64c-1.51,2.7-4.54,4.31-8.19,4.31-6.58,0-10.74-5.06-10.74-11.55s4.21-11.64,10.93-11.64ZM337.83,52.4c4.5,0,7.24-3.22,7.24-7.76s-2.65-7.67-7.19-7.67-7.1,3.41-7.1,7.67,2.7,7.76,7.05,7.76Z"/><path class="uuid-b5b35296-20f6-41a7-ae0c-32e28decd3be" d="M355.62,56.9v-23.14h4.02l.47,3.55c1.47-2.65,4.4-4.21,7.67-4.21,6.1,0,8.9,3.74,8.9,9.65v14.15h-4.45v-13.15c0-4.68-2.18-6.58-5.58-6.58-4.16,0-6.58,2.98-6.58,7.48v12.26h-4.45Z"/><path class="uuid-b5b35296-20f6-41a7-ae0c-32e28decd3be" d="M405.35,22.07c6.53,0,10.74,3.64,11.12,9.56h-4.68c-.24-3.41-2.65-5.39-6.48-5.39-4.31,0-7.1,2.18-7.1,5.54,0,2.74,1.56,4.4,4.78,5.16l5.63,1.32c5.58,1.28,8.42,4.31,8.42,9.13,0,6.15-4.78,10.08-12.07,10.08s-11.59-3.64-11.88-9.51h4.73c.09,3.26,2.84,5.35,7.14,5.35,4.54,0,7.43-2.13,7.43-5.54,0-2.7-1.47-4.4-4.73-5.16l-5.63-1.28c-5.58-1.28-8.47-4.5-8.47-9.42,0-5.87,4.73-9.84,11.78-9.84Z"/><path class="uuid-b5b35296-20f6-41a7-ae0c-32e28decd3be" d="M423.7,56.9v-19.4h-4.54v-3.74h4.54v-7.24h4.45v7.24h4.54v3.74h-4.54v19.4h-4.45Z"/><path class="uuid-b5b35296-20f6-41a7-ae0c-32e28decd3be" d="M456.59,33.76v23.14h-3.97l-.47-3.5c-1.32,2.41-4.4,4.07-7.81,4.07-5.39,0-8.42-3.64-8.42-9.32v-14.38h4.45v12.92c0,4.97,2.13,6.86,5.54,6.86,4.07,0,6.29-2.6,6.29-7.57v-12.21h4.4Z"/><path class="uuid-b5b35296-20f6-41a7-ae0c-32e28decd3be" d="M460.56,45.4c0-7.1,4.12-12.3,10.98-12.3,3.55,0,6.53,1.56,8.09,4.4v-15.43h4.4v34.83h-3.97l-.38-4.21c-1.51,3.17-4.64,4.78-8.33,4.78-6.72,0-10.79-5.02-10.79-12.07ZM479.58,45.26c0-4.73-2.79-8.14-7.33-8.14s-7.19,3.41-7.19,8.14,2.65,8.19,7.19,8.19,7.33-3.36,7.33-8.19Z"/><path class="uuid-b5b35296-20f6-41a7-ae0c-32e28decd3be" d="M489.23,25.34c0-1.66,1.32-2.93,2.93-2.93s2.93,1.28,2.93,2.93-1.33,2.93-2.93,2.93-2.93-1.33-2.93-2.93ZM489.99,33.76h4.45v23.14h-4.45v-23.14Z"/><path class="uuid-b5b35296-20f6-41a7-ae0c-32e28decd3be" d="M510.95,33.15c6.91,0,12.02,5.02,12.02,12.16s-5.11,12.16-12.02,12.16-12.07-5.02-12.07-12.16,5.11-12.16,12.07-12.16ZM510.95,53.49c4.45,0,7.57-3.36,7.57-8.19s-3.12-8.19-7.57-8.19-7.57,3.36-7.57,8.19,3.08,8.19,7.57,8.19Z"/><path class="uuid-956137d8-95cf-4ce9-a28b-33b12a8dd490" d="M100.79,15.5h-3.69c-1.28,0-1.85.55-1.85,1.78v3.16c-8.8-7.27-21.87-6.86-30.11.96-8.52,8.23-8.52,21.54,0,29.77,4.12,3.98,9.8,6.31,15.62,6.17,5.4,0,10.51-1.92,14.48-5.35v3.57c0,1.23.57,1.78,1.85,1.78h3.69c1.28,0,1.85-.55,1.85-1.78V17.15c0-1.1-.57-1.65-1.85-1.65ZM91.13,46.1c-2.7,2.61-6.53,4.12-10.37,3.98-3.83,0-7.67-1.37-10.37-4.12-2.84-2.61-4.4-6.17-4.26-10.02-.14-3.7,1.42-7.27,4.12-9.88,2.7-2.74,6.39-4.25,10.37-4.12,3.98-.14,7.67,1.37,10.51,3.98,5.68,5.62,5.68,14.68,0,20.17Z"/><path class="uuid-956137d8-95cf-4ce9-a28b-33b12a8dd490" d="M34.33,20.44c-3.55-3.43-8.52-5.35-13.49-5.21-5.54-.14-10.79,1.92-14.63,5.76-8.38,8.51-8.24,21.81.14,30.18,4.12,3.98,9.8,6.31,15.62,6.17,4.97,0,9.8-1.23,14.06-3.7.99-.55,1.42-.96,1.42-1.51,0-.27-.14-.69-.28-.96l-1.42-2.74c-.14-.55-.71-.96-1.28-.96-.28,0-.71.14-.99.27-3.41,1.78-7.38,2.74-11.36,2.61-7.1.27-13.35-4.53-14.63-11.25h30.96c1.28,0,1.85-.55,1.85-1.78v-2.33c.14-5.35-1.99-10.7-5.96-14.54ZM7.78,33.06c.71-3.29,2.56-6.17,5.11-8.37,4.97-3.7,12.07-3.29,16.62,1.1,1.99,1.92,3.27,4.53,3.41,7.27H7.78Z"/><path class="uuid-956137d8-95cf-4ce9-a28b-33b12a8dd490" d="M47.68,57.21c-1.28,0-1.85-.55-1.85-1.65V1.78c0-1.23.57-1.78,1.85-1.78h3.69c1.28,0,1.85.55,1.85,1.78v53.78c0,1.23-.57,1.78-1.85,1.78h-3.69v-.14Z"/><path class="uuid-956137d8-95cf-4ce9-a28b-33b12a8dd490" d="M151.77,10.02c-.71-.69-1.14-1.65-1.14-2.61s.43-1.92,1.14-2.61c1.56-1.37,3.98-1.37,5.54,0,.71.69,1.14,1.65,1.14,2.61s-.43,1.92-1.14,2.61c-1.56,1.37-3.98,1.37-5.54,0Z"/><path class="uuid-956137d8-95cf-4ce9-a28b-33b12a8dd490" d="M150.92,17.97c0-1.92,1.7-3.57,3.69-3.57s3.69,1.65,3.69,3.57v37.59c0,1.23-.57,1.78-1.85,1.78h-3.69c-1.28,0-1.85-.55-1.85-1.78V17.7"/><path class="uuid-956137d8-95cf-4ce9-a28b-33b12a8dd490" d="M164.7,10.02c-.71-.69-1.14-1.65-1.14-2.61s.43-1.92,1.14-2.61c1.56-1.37,3.98-1.37,5.54,0,.71.69,1.14,1.65,1.14,2.61s-.43,1.92-1.14,2.61c-1.56,1.37-3.98,1.37-5.54,0Z"/><path class="uuid-956137d8-95cf-4ce9-a28b-33b12a8dd490" d="M163.84,17.97c0-1.92,1.7-3.57,3.69-3.57s3.69,1.65,3.69,3.57v37.59c0,1.23-.57,1.78-1.85,1.78h-3.69c-1.28,0-1.85-.55-1.85-1.78V17.7"/><path class="uuid-956137d8-95cf-4ce9-a28b-33b12a8dd490" d="M145.38,31.55c0-9.47-7.95-17.15-17.75-17.15-4.69,0-8.95,1.78-12.07,4.66v-1.92c0-1.23-.57-1.78-1.85-1.78h-3.69c-1.28,0-1.85.55-1.85,1.78v38.28c0,1.23.57,1.78,1.85,1.78h3.69c1.28,0,1.85-.55,1.85-1.78v-23.05c0-6.04,5.11-10.98,11.36-10.98s11.36,4.94,11.36,10.98v23.05c0,1.23.57,1.78,1.85,1.78h3.55c1.28,0,1.85-.55,1.85-1.78v-23.05c-.14-.27-.14-.55-.14-.82Z"/><path class="uuid-956137d8-95cf-4ce9-a28b-33b12a8dd490" d="M213.83,31.69c0-9.47-7.95-17.15-17.75-17.15-4.68,0-8.95,1.78-12.07,4.66v-1.92c0-1.23-.57-1.78-1.85-1.78h-3.69c-1.28,0-1.85.55-1.85,1.78v38.28c0,1.23.57,1.78,1.85,1.78h3.69c1.28,0,1.85-.55,1.85-1.78v-23.05c0-6.04,4.97-10.98,11.22-10.98s11.36,4.94,11.36,10.98v23.05c0,1.23.57,1.78,1.84,1.78h3.55c1.28,0,1.85-.55,1.85-1.78v-23.87Z"/></g></svg>