<?xml version="1.0" encoding="UTF-8"?><svg id="uuid-017d5ff2-e8c6-4891-ac01-1dd0c38feada" xmlns="http://www.w3.org/2000/svg" viewBox="0 0 428.33 64.49"><defs><style>.uuid-b9d500a0-3271-434c-b8a6-99860b76b552{fill:#233df7;}.uuid-e7e8359d-5d04-4e8c-947e-a9df3d9baf76{fill:#2b3d54;}</style></defs><g id="uuid-384c2712-71de-4cc1-b900-a20d04c7cab1"><path class="uuid-b9d500a0-3271-434c-b8a6-99860b76b552" d="M109.81,17.43h-4.06c-1.35,0-1.95.6-1.95,1.95v3.61c-9.54-8.21-23.77-7.75-32.77,1.05-9.22,9.27-9.22,24.25,0,33.52,4.47,4.55,10.61,7.05,16.99,6.92,5.82-.01,11.43-2.15,15.78-6.01v4.06c0,1.35.6,1.95,1.95,1.95h4.06c1.35,0,1.95-.6,1.95-1.95V19.39c0-1.35-.61-1.96-1.96-1.96M99.28,52.01c-3.01,2.95-7.06,4.57-11.27,4.51-4.24.07-8.32-1.61-11.27-4.66-3.1-2.92-4.79-7.02-4.66-11.27-.09-4.17,1.54-8.19,4.51-11.12h0c2.95-3.05,7.03-4.73,11.27-4.66,4.26-.09,8.38,1.54,11.43,4.51,6.21,6.29,6.21,16.41,0,22.7"/><path class="uuid-b9d500a0-3271-434c-b8a6-99860b76b552" d="M37.43,22.99c-3.91-3.87-9.23-5.99-14.73-5.86-5.98-.15-11.75,2.19-15.93,6.46-9.08,9.53-9.01,24.53.15,33.97,4.47,4.55,10.61,7.05,16.99,6.92,5.4.05,10.71-1.41,15.33-4.21,1.05-.6,1.5-1.05,1.5-1.66.02-.38-.08-.74-.3-1.05l-1.5-3.16c-.16-.62-.71-1.05-1.35-1.05-.38-.02-.75.08-1.05.3-3.79,2.03-8.03,3.06-12.33,3.01-7.72.36-14.52-5.03-15.93-12.63h33.67c1.35,0,1.95-.6,1.95-1.95v-2.56c.23-6.17-2.11-12.16-6.47-16.54M8.57,37.28c.72-3.7,2.68-7.04,5.56-9.47,5.45-4.23,13.2-3.71,18.04,1.2,2.22,2.21,3.55,5.15,3.76,8.27H8.57Z"/><path class="uuid-b9d500a0-3271-434c-b8a6-99860b76b552" d="M51.98,64.49c-1.35,0-1.95-.6-1.95-1.81V1.95c0-1.35.6-1.95,1.95-1.95h4.06c1.35,0,1.95.6,1.95,1.95v60.58c0,1.35-.6,1.95-1.95,1.95h-4.06Z"/><path class="uuid-b9d500a0-3271-434c-b8a6-99860b76b552" d="M165.34,11.27c-.81-.74-1.26-1.78-1.27-2.87,0-1.12.46-2.2,1.27-2.99,1.7-1.53,4.28-1.53,5.98,0,.79.8,1.24,1.87,1.26,2.99.02,1.1-.44,2.15-1.26,2.87-1.7,1.53-4.28,1.53-5.98,0"/><path class="uuid-b9d500a0-3271-434c-b8a6-99860b76b552" d="M164.35,20.23c0-2.2,1.78-3.98,3.98-3.98s3.98,1.78,3.98,3.98v42.3c0,1.35-.6,1.95-1.96,1.95h-4.05c-1.35,0-1.96-.6-1.96-1.95V19.98"/><path class="uuid-b9d500a0-3271-434c-b8a6-99860b76b552" d="M179.39,11.27c-.81-.74-1.26-1.78-1.27-2.87,0-1.12.46-2.2,1.27-2.99,1.7-1.53,4.28-1.53,5.98,0,.79.8,1.24,1.87,1.26,2.99.02,1.1-.44,2.15-1.26,2.87-1.7,1.53-4.28,1.53-5.98,0"/><path class="uuid-b9d500a0-3271-434c-b8a6-99860b76b552" d="M178.39,20.23c0-2.2,1.78-3.98,3.98-3.98s3.98,1.78,3.98,3.98v42.3c0,1.35-.6,1.95-1.96,1.95h-4.05c-1.35,0-1.96-.6-1.96-1.95V19.98"/><path class="uuid-b9d500a0-3271-434c-b8a6-99860b76b552" d="M158.32,35.52c0-10.63-8.62-19.25-19.25-19.25-5.1,0-9.74,1.99-13.19,5.23h-.03v-2.11c0-1.35-.6-1.96-1.95-1.96h-4.06c-1.35,0-1.96.6-1.96,1.96v43.14c0,1.35.6,1.95,1.96,1.95h4.06c1.35,0,1.95-.6,1.95-1.95v-26.09c0-6.8,5.49-12.3,12.29-12.3s12.32,5.51,12.32,12.32h.01s.02,1.11.02,1.11v24.96c0,1.35.6,1.95,1.96,1.95h3.9c1.35,0,1.95-.6,1.95-1.95v-26c0-.34,0-.68-.02-1.02l.02.02Z"/><path class="uuid-b9d500a0-3271-434c-b8a6-99860b76b552" d="M232.92,35.65c0-10.63-8.62-19.25-19.25-19.25-5.1,0-9.74,1.99-13.19,5.23h-.03v-2.23c0-1.35-.6-1.96-1.95-1.96h-4.06c-1.35,0-1.96.6-1.96,1.96v43.12c0,1.35.6,1.95,1.96,1.95h4.06c1.35,0,1.95-.6,1.95-1.95v-25.93c0-6.8,5.49-12.3,12.29-12.3s12.32,5.51,12.32,12.32h.01s.02,1.11.02,1.11v24.82c0,1.35.6,1.95,1.96,1.95h3.9c1.35,0,1.95-.6,1.95-1.95v-25.88c0-.34,0-.68-.02-1.02l.02.02Z"/><path class="uuid-e7e8359d-5d04-4e8c-947e-a9df3d9baf76" d="M262.5,26.2h-4.52v-2.67h12.33v2.67h-4.52v11.48h-3.27v-11.48h0Z"/><path class="uuid-e7e8359d-5d04-4e8c-947e-a9df3d9baf76" d="M293.11,35.05v2.63h-10.95v-14.14h10.69v2.63h-7.44v3.07h6.57v2.54h-6.57v3.27h7.7Z"/><path class="uuid-e7e8359d-5d04-4e8c-947e-a9df3d9baf76" d="M304.89,30.6c0-4.27,3.27-7.31,7.68-7.31,2.44,0,4.48.89,5.82,2.5l-2.1,1.94c-.95-1.09-2.14-1.66-3.56-1.66-2.65,0-4.52,1.86-4.52,4.52s1.88,4.52,4.52,4.52c1.42,0,2.61-.56,3.56-1.68l2.1,1.94c-1.33,1.64-3.37,2.52-5.84,2.52-4.39,0-7.66-3.05-7.66-7.31Z"/><path class="uuid-e7e8359d-5d04-4e8c-947e-a9df3d9baf76" d="M343.67,23.53v14.14h-3.27v-5.8h-6.43v5.8h-3.27v-14.14h3.27v5.58h6.43v-5.58h3.27Z"/><path class="uuid-e7e8359d-5d04-4e8c-947e-a9df3d9baf76" d="M257.97,57.18c0-4.27,3.27-7.31,7.68-7.31,2.44,0,4.48.89,5.82,2.5l-2.1,1.94c-.95-1.09-2.14-1.66-3.56-1.66-2.65,0-4.52,1.86-4.52,4.52s1.88,4.52,4.52,4.52c1.42,0,2.61-.56,3.56-1.68l2.1,1.94c-1.33,1.64-3.37,2.52-5.84,2.52-4.39,0-7.66-3.05-7.66-7.31Z"/><path class="uuid-e7e8359d-5d04-4e8c-947e-a9df3d9baf76" d="M282.59,57.18c0-4.21,3.27-7.31,7.74-7.31s7.74,3.09,7.74,7.31-3.29,7.31-7.74,7.31-7.74-3.11-7.74-7.31ZM294.75,57.18c0-2.69-1.9-4.52-4.43-4.52s-4.43,1.84-4.43,4.52,1.9,4.52,4.43,4.52,4.43-1.84,4.43-4.52Z"/><path class="uuid-e7e8359d-5d04-4e8c-947e-a9df3d9baf76" d="M323.51,64.25l-.02-8.49-4.16,6.99h-1.48l-4.14-6.81v8.31h-3.07v-14.14h2.71l5.29,8.79,5.21-8.79h2.69l.04,14.14h-3.07Z"/><path class="uuid-e7e8359d-5d04-4e8c-947e-a9df3d9baf76" d="M352.3,55.24c0,3.15-2.36,5.11-6.14,5.11h-2.85v3.9h-3.27v-14.14h6.12c3.78,0,6.14,1.96,6.14,5.13ZM348.99,55.24c0-1.56-1.01-2.46-3.01-2.46h-2.67v4.91h2.67c2.01,0,3.01-.91,3.01-2.44Z"/><path class="uuid-e7e8359d-5d04-4e8c-947e-a9df3d9baf76" d="M373.34,61.22h-6.57l-1.25,3.03h-3.35l6.31-14.14h3.23l6.33,14.14h-3.44l-1.26-3.03ZM372.31,58.73l-2.24-5.42-2.24,5.42h4.49Z"/><path class="uuid-e7e8359d-5d04-4e8c-947e-a9df3d9baf76" d="M402.59,50.1v14.14h-2.69l-7.05-8.59v8.59h-3.23v-14.14h2.71l7.03,8.59v-8.59h3.23Z"/><path class="uuid-e7e8359d-5d04-4e8c-947e-a9df3d9baf76" d="M422.84,59.24v5.01h-3.27v-5.05l-5.48-9.09h3.48l3.78,6.29,3.78-6.29h3.21l-5.49,9.13Z"/></g></svg>